# xmcd
# 
# Track frame offsets:
#     150
#     4970
#     34473
#     55669
#     77383
#     102356
#     128733
#     145250
#     176213
#     202945
#     229231
#     240120
#     281333
# 
# Disc length: 3960
# 
# Revision: 4
# Processed by: cddbd v1.5.2PL0 Copyright (c) Steve Scherf et al.
# Submitted via: fre:ac v1.0.31
# 
DISCID=a60f760d
DTITLE=The Chemical Brothers - We Are The Night
DYEAR=2007
DGENRE=Electronica
TTITLE0=No Path To Follow
TTITLE1=We Are The Night
TTITLE2=All Rights Reversed
TTITLE3=Saturate
TTITLE4=Do It Again
TTITLE5=Das Spiegel
TTITLE6=The Salmon Dance
TTITLE7=Burst Generator
TTITLE8=A Modern Midnight Conversation
TTITLE9=Battle Scars
TTITLE10=Harpoons
TTITLE11=The Pills Won't Help You Now
TTITLE12=Opendisc
EXTD=
EXTT0=
EXTT1=
EXTT2=
EXTT3=
EXTT4=
EXTT5=
EXTT6=
EXTT7=
EXTT8=
EXTT9=
EXTT10=
EXTT11=
EXTT12=
PLAYORDER=
